<svg xmlns="http://www.w3.org/2000/svg" viewBox="0 0 1200 630" width="1200" height="630">
  <defs>
    <linearGradient id="bgGrad" x1="0%" y1="0%" x2="100%" y2="100%">
      <stop offset="0%" stop-color="#080C14" />
      <stop offset="100%" stop-color="#0F172A" />
    </linearGradient>
    <linearGradient id="brandGrad" x1="0%" y1="0%" x2="100%" y2="100%">
      <stop offset="0%" stop-color="#F59E0B" />
      <stop offset="50%" stop-color="#F97316" />
      <stop offset="100%" stop-color="#EF4444" />
    </linearGradient>
  </defs>
  
  <rect width="1200" height="630" fill="url(#bgGrad)"/>
  
  <!-- Subtle Grid Lines -->
  <g stroke="#1E293B" stroke-width="1" opacity="0.4">
    <line x1="0" y1="100" x2="1200" y2="100"/>
    <line x1="0" y1="200" x2="1200" y2="200"/>
    <line x1="0" y1="300" x2="1200" y2="300"/>
    <line x1="0" y1="400" x2="1200" y2="400"/>
    <line x1="0" y1="500" x2="1200" y2="500"/>
  </g>

  <!-- Logo Badge Left -->
  <g transform="translate(100, 165) scale(2.5)">
    <rect x="0" y="0" width="100" height="100" rx="26" fill="url(#brandGrad)" stroke="#FDE68A" stroke-width="2" />
    <circle cx="50" cy="50" r="36" fill="#0F172A" stroke="#334155" stroke-width="2"/>
    <path d="M35 45 C33 38, 43 35, 52 36 C60 37, 66 41, 65 48 C64 55, 56 61, 48 62 C40 63, 37 56, 35 45 Z" fill="#080C14" stroke="#F59E0B" stroke-width="2"/>
    <path d="M35 44 L26 39" stroke="#EF4444" stroke-width="2" stroke-linecap="round"/>
    <path d="M65 47 L74 44" stroke="#EF4444" stroke-width="2" stroke-linecap="round"/>
    <path d="M50 62 L52 70" stroke="#EF4444" stroke-width="2" stroke-linecap="round"/>
  </g>

  <!-- Text Header -->
  <text x="400" y="270" font-family="'Baloo 2', sans-serif" font-weight="800" font-size="76" fill="#FFFFFF" letter-spacing="-1">
    खड्डा वाली पार्टी
  </text>
  <text x="400" y="335" font-family="'Poppins', sans-serif" font-weight="700" font-size="32" fill="#F59E0B" letter-spacing="2">
    KHADDAWALI PARTY
  </text>
  <text x="400" y="395" font-family="'Baloo 2', sans-serif" font-weight="600" font-size="36" fill="#94A3B8">
    "मेरा खड्डा, मेरी शान"
  </text>
  <text x="400" y="460" font-family="'Poppins', sans-serif" font-weight="500" font-size="22" fill="#64748B">
    🇮🇳 India's Public Pothole & Bad Road Community Tracker
  </text>

  <!-- Footer Disclaimer -->
  <rect x="0" y="570" width="1200" height="60" fill="#030712"/>
  <text x="600" y="608" font-family="'Noto Sans Devanagari', sans-serif" font-size="18" fill="#94A3B8" text-anchor="middle">
    नागरिक पहल • कोई राजनीतिक दल नहीं • Citizen Initiative, Not a Political Party
  </text>
</svg>
